<svg xmlns="http://www.w3.org/2000/svg" width="72" height="81"><path d="M38.497 74.983c-2.442-.553-3.532-1.774-3.138-3.518.117-.517.327-1.08.467-1.251.414-.505 1.574-2.777 1.574-3.083 0-.155.24-.431.532-.614.399-.25.492-.49.373-.964-.109-.432.004-.838.358-1.288.812-1.032.685-1.604-.357-1.604-1.24 0-2.017.353-3.254 1.478-1.234 1.122-2.818 1.604-6.82 2.072-2.163.254-2.57.235-3.657-.171-.674-.251-1.35-.66-1.505-.908-.456-.732.55-2.19 2.328-3.376l1.547-1.032-.837-.451c-.46-.248-1.968-1.35-3.349-2.449-1.998-1.59-2.566-1.927-2.777-1.653-.146.19-.546 1.211-.89 2.27-.405 1.253-.756 1.927-1.004 1.932-.455.008-4.805-4.46-5.92-6.08l-.785-1.14-.318.751c-.176.414-.458 1.353-.627 2.087-.17.733-.399 1.334-.51 1.334-.518 0-1.635-1.904-3.732-6.361-1.593-3.388-1.708-4.104-1.187-7.384.96-6.047 3.824-19.482 5.152-24.17.478-1.688.478-1.702-.012-1.44-.42.225-.473.194-.35-.201.081-.257.38-1.84.664-3.516.284-1.677.79-4.25 1.126-5.718s.577-2.701.537-2.742-.87.516-1.846 1.237L8.507 8.34l-1.082 3.963c-1.366 5.002-1.5 5.34-1.513 3.856-.006-.63.095-1.883.226-2.786.235-1.63.166-2.303-.142-1.38-.088.265-.624 1.48-1.19 2.702-.949 2.045-1.008 2.297-.748 3.176.156.526.353 2.728.438 4.894s.201 4.175.259 4.463c.08.403-.087.592-.732.825-1.155.418-1.54.382-2.06-.193-.405-.448-.437-.943-.323-5.02.119-4.23.318-5.51 1.028-6.619.202-.315.404-1.831 1.461-10.99.299-2.585.595-4.786.66-4.89C4.851.234 20.505.15 39.574.15h34.671v7.315l-1.054 2.632c-1.053 2.63-2.706 5.622-4.068 7.369-.824 1.055-.85 1.17-.384 1.722.562.666 1.163 3.791 1.49 7.754l.31 3.746-.624.48c-.734.564-1.176.603-2.065.183-.598-.282-.666-.479-.812-2.35-.244-3.13-.192-7.14.102-7.913.158-.415.17-.754.03-.843-.128-.081-.39-.684-.58-1.339l-.35-1.191-.67.582-.67.583.6 3.658c1.044 6.371 2.21 14.564 2.634 18.523.157 1.468.447 4.04.644 5.718.698 5.939.71 5.721-.357 6.74-1.079 1.03-3.576 2.394-6.5 3.55-1.118.443-3.005 1.41-4.193 2.151-2.154 1.343-3.167 1.916-3.386 1.916-.063 0-.188-.389-.277-.864l-.162-.865-3.918 1.945c-2.936 1.457-3.888 2.044-3.802 2.342.063.22.096 1.191.074 2.16s-.018 2.865.011 4.213l.052 2.45-.777.554c-.918.653-3.385 1.687-4.759 1.993-.616.138-1.451.108-2.288-.081m-9.794-15.727c.294-.647.187-.915-.366-.915-.207 0-.339.296-.339.762 0 .918.324.988.705.153" fill="currentColor" transform="translate(-1.583 -.15)"/></svg>