<svg xmlns="http://www.w3.org/2000/svg" width="75" height="81"><path fill="currentColor" d="M1.001 81.72c.088-.317.723-1.733 1.41-3.145.687-1.413 1.33-2.857 1.43-3.21.099-.354.616-1.695 1.147-2.98.904-2.184.951-2.428.72-3.7-.43-2.368 1.433-4.266 6.882-7.01.998-.503 2.009-1.21 2.246-1.572s.833-.827 1.325-1.032.894-.482.894-.614c0-.213.608-.397 2.131-.644.255-.042.691-.45.97-.91.844-1.387 3.799-4.84 5.167-6.036 2.898-2.535 3.706-6.602 2.098-10.558l-.73-1.798-.173 1.284a27 27 0 0 0-.195 2.593c-.027 1.544-.523 2.14-1.756 2.104-.818-.023-.827-.037-.694-1.076l.135-1.052-.427.973c-.872 1.993-1.17.97-.658-2.258.528-3.328.409-4.682-.506-5.724-1.35-1.537-.505-6.207 1.382-7.647.605-.462.658-.68.767-3.149l.117-2.652-1.497 1.625c-.823.894-1.499 1.545-1.502 1.447-.015-.427 3.09-6.932 3.952-8.28.936-1.462 3.392-4.085 4.902-5.233l.77-.586-1.536.15c-.844.082-1.808.327-2.14.545-.986.646-.921.221.093-.615 1.547-1.275 3.32-1.698 5.588-1.332 1.856.3 1.922.291 2.9-.357 1.626-1.075 3.866-1.725 6.395-1.854l2.311-.118-1.373.39c-.755.216-1.853.603-2.44.862l-1.066.47 1.49.191c4.65.595 8.581 4.806 11.386 12.199 1.212 3.196 1.28 3.751.25 2.03-.78-1.299-.792-1.233-.285 1.417.483 2.527.475 7.378-.015 8.774l-.361 1.027.117-1.024c.065-.564-.073-2.066-.306-3.339-.588-3.208-.815-2.248-1.093 4.62-.288 7.138-1.621 9.983-4.942 10.554-.847.146-.847.146-.298-.324.477-.409 1.376-1.873 1.376-2.242 0-.07-.501.096-1.114.367-.841.372-1.31.437-1.905.266-.655-.188-.875-.132-1.292.327-.848.934-.818 1.29.147 1.74.64.299 1.115.838 1.693 1.923.772 1.45.85 1.515 2.078 1.718 1.672.277 1.8.41 2.346 2.426.524 1.937 1.072 2.68 1.69 2.29.289-.183.61-.101 1.168.295.423.302.828.488.901.415.156-.155 2.185.864 2.394 1.202.079.127.47.23.87.23s.787.153.858.339c.072.186.748.477 1.504.647 2.11.474 5.072 1.863 7.746 3.631l2.425 1.604.805 2.347c.443 1.29 1.03 3.531 1.304 4.98.391 2.065.662 2.839 1.256 3.595 2.01 2.554 3.633 5.915 3.633 7.52V82.3H.84Zm45.004-39.385c1.132-.862 2.164-2.708 2.324-4.16l.133-1.205-1.051 1.078c-.578.593-1.248 1.46-1.488 1.926-.24.467-.825 1.323-1.298 1.902-1.32 1.616-.499 1.889 1.38.459m3.93-.113c.154-.289.245-.818.2-1.175-.068-.555-.14-.478-.497.526-.422 1.188-.224 1.621.296.65m-26.14-8.64c-.017-1.557-.2-3.16-.359-3.16-.613 0-.978 3.502-.423 4.057.423.423.793-.001.783-.896" transform="translate(-.852 -.973)"/></svg>